<?xml version="1.0" encoding="UTF-8" standalone="no"?>
<!-- Created with Inkscape (http://www.inkscape.org/) -->

<svg
   xmlns:dc="http://purl.org/dc/elements/1.1/"
   xmlns:cc="http://creativecommons.org/ns#"
   xmlns:rdf="http://www.w3.org/1999/02/22-rdf-syntax-ns#"
   xmlns:svg="http://www.w3.org/2000/svg"
   xmlns="http://www.w3.org/2000/svg"
   xmlns:sodipodi="http://sodipodi.sourceforge.net/DTD/sodipodi-0.dtd"
   xmlns:inkscape="http://www.inkscape.org/namespaces/inkscape"
   version="1.1"
   id="svg2"
   xml:space="preserve"
   width="1000"
   height="1000"
   viewBox="0 0 1000.0006 1000.0025"
   sodipodi:docname="logo.svg"
   inkscape:version="0.92.3 (2405546, 2018-03-11)"
   inkscape:export-filename="/home/hugo/Desktop/gestao-escola-conducao/docs/mockups/logo/logo.png"
   inkscape:export-xdpi="300"
   inkscape:export-ydpi="300"><metadata
     id="metadata8"><rdf:RDF><cc:Work
         rdf:about=""><dc:format>image/svg+xml</dc:format><dc:type
           rdf:resource="http://purl.org/dc/dcmitype/StillImage" /><dc:title /></cc:Work></rdf:RDF></metadata><defs
     id="defs6"><clipPath
       clipPathUnits="userSpaceOnUse"
       id="clipPath20"><path
         d="M 0,800 H 800 V 0 H 0 Z"
         id="path18"
         inkscape:connector-curvature="0" /></clipPath><clipPath
       clipPathUnits="userSpaceOnUse"
       id="clipPath52"><path
         d="m 342.357,590.886 c -1.595,9.204 -8.468,16.934 -8.468,16.934 v 0 c -6.135,-10.676 8.468,-16.934 8.468,-16.934"
         id="path50"
         inkscape:connector-curvature="0" /></clipPath><linearGradient
       x1="0"
       y1="0"
       x2="1"
       y2="0"
       gradientUnits="userSpaceOnUse"
       gradientTransform="matrix(15.53444,0,0,-15.53444,333.20959,599.35303)"
       spreadMethod="pad"
       id="linearGradient64"><stop
         style="stop-opacity:1;stop-color:#6a8991"
         offset="0"
         id="stop58" /><stop
         style="stop-opacity:1;stop-color:#335c64"
         offset="0.53"
         id="stop60" /><stop
         style="stop-opacity:1;stop-color:#02383c"
         offset="1"
         id="stop62" /></linearGradient><clipPath
       clipPathUnits="userSpaceOnUse"
       id="clipPath74"><path
         d="M 0,800 H 800 V 0 H 0 Z"
         id="path72"
         inkscape:connector-curvature="0" /></clipPath><clipPath
       clipPathUnits="userSpaceOnUse"
       id="clipPath94"><path
         d="m 106.032,605.133 c 0,0 12.969,12.946 9.657,24.266 v 0 l -1.497,0.835 c -0.009,0 -0.018,10e-4 -0.027,10e-4 v 0 c -2.77,10e-4 -12.119,-21.845 -8.133,-25.102"
         id="path92"
         inkscape:connector-curvature="0" /></clipPath><linearGradient
       x1="0"
       y1="0"
       x2="1"
       y2="0"
       gradientUnits="userSpaceOnUse"
       gradientTransform="matrix(16.922857,0,0,-16.922857,102.37423,617.68378)"
       spreadMethod="pad"
       id="linearGradient118"><stop
         style="stop-opacity:1;stop-color:#bc352e"
         offset="0"
         id="stop100" /><stop
         style="stop-opacity:1;stop-color:#dd4d2f"
         offset="0.13"
         id="stop102" /><stop
         style="stop-opacity:1;stop-color:#be4a2b"
         offset="0.21"
         id="stop104" /><stop
         style="stop-opacity:1;stop-color:#d35a39"
         offset="0.33"
         id="stop106" /><stop
         style="stop-opacity:1;stop-color:#ec6b4e"
         offset="0.46"
         id="stop108" /><stop
         style="stop-opacity:1;stop-color:#ee5f3c"
         offset="0.62"
         id="stop110" /><stop
         style="stop-opacity:1;stop-color:#ed4e2c"
         offset="0.91"
         id="stop112" /><stop
         style="stop-opacity:1;stop-color:#bc4c24"
         offset="1"
         id="stop114" /><stop
         style="stop-opacity:1;stop-color:#bc4c24"
         offset="1"
         id="stop116" /></linearGradient><clipPath
       clipPathUnits="userSpaceOnUse"
       id="clipPath128"><path
         d="M 0,800 H 800 V 0 H 0 Z"
         id="path126"
         inkscape:connector-curvature="0" /></clipPath><clipPath
       clipPathUnits="userSpaceOnUse"
       id="clipPath352"><path
         d="m 360.71,414.421 4.46,-6.185 c 0,0 1.182,0 1.657,1.048 v 0 c 0.471,1.048 -0.507,6.217 -0.507,6.217 v 0 z"
         id="path350"
         inkscape:connector-curvature="0" /></clipPath><linearGradient
       x1="0"
       y1="0"
       x2="1"
       y2="0"
       gradientUnits="userSpaceOnUse"
       gradientTransform="matrix(0,-14.163619,-14.163619,0,363.8327,418.95053)"
       spreadMethod="pad"
       id="linearGradient366"><stop
         style="stop-opacity:1;stop-color:#4c3f4f"
         offset="0"
         id="stop358" /><stop
         style="stop-opacity:1;stop-color:#4c3f4f"
         offset="0"
         id="stop360" /><stop
         style="stop-opacity:1;stop-color:#474e64"
         offset="0.23"
         id="stop362" /><stop
         style="stop-opacity:1;stop-color:#475c7b"
         offset="1"
         id="stop364" /></linearGradient><clipPath
       clipPathUnits="userSpaceOnUse"
       id="clipPath376"><path
         d="M 0,800 H 800 V 0 H 0 Z"
         id="path374"
         inkscape:connector-curvature="0" /></clipPath><clipPath
       clipPathUnits="userSpaceOnUse"
       id="clipPath894"><path
         d="m 712.064,457.959 c -4.488,-1.269 -3.3,-9.055 0.246,-11.417 v 0 c 2.415,-1.61 10.939,-0.466 13.01,-0.007 v 0 c 0,0 2.027,8.104 0.299,12.48 v 0 c 0,0 -0.552,0.013 -1.451,0.013 v 0 c -2.745,0 -8.722,-0.118 -12.104,-1.069"
         id="path892"
         inkscape:connector-curvature="0" /></clipPath><linearGradient
       x1="0"
       y1="0"
       x2="1"
       y2="0"
       gradientUnits="userSpaceOnUse"
       gradientTransform="matrix(-2.9360507,-15.10467,-15.10467,2.9360507,719.16736,460.13129)"
       spreadMethod="pad"
       id="linearGradient906"><stop
         style="stop-opacity:1;stop-color:#f3807c"
         offset="0"
         id="stop900" /><stop
         style="stop-opacity:1;stop-color:#ee3d57"
         offset="0.5"
         id="stop902" /><stop
         style="stop-opacity:1;stop-color:#dd1e47"
         offset="1"
         id="stop904" /></linearGradient><clipPath
       clipPathUnits="userSpaceOnUse"
       id="clipPath916"><path
         d="M 0,800 H 800 V 0 H 0 Z"
         id="path914"
         inkscape:connector-curvature="0" /></clipPath><clipPath
       clipPathUnits="userSpaceOnUse"
       id="clipPath928"><path
         d="m 398.438,447.314 c 0,0 -4.332,-4.847 -3.637,-15.554 v 0 c 0.029,-0.442 1.227,-1.354 2.764,-1.327 v 0 c 1.536,0.027 2.545,9.676 2.435,13.951 v 0 c -0.068,2.624 -0.641,3.13 -1.073,3.13 v 0 c -0.272,0 -0.489,-0.2 -0.489,-0.2"
         id="path926"
         inkscape:connector-curvature="0" /></clipPath><linearGradient
       x1="0"
       y1="0"
       x2="1"
       y2="0"
       gradientUnits="userSpaceOnUse"
       gradientTransform="matrix(-3e-7,-2498.7637,-2498.7637,3e-7,397.36691,1688.3539)"
       spreadMethod="pad"
       id="linearGradient938"><stop
         style="stop-opacity:1;stop-color:#ffffff"
         offset="0"
         id="stop934" /><stop
         style="stop-opacity:1;stop-color:#231f20"
         offset="1"
         id="stop936" /></linearGradient><clipPath
       clipPathUnits="userSpaceOnUse"
       id="clipPath948"><path
         d="M 0,800 H 800 V 0 H 0 Z"
         id="path946"
         inkscape:connector-curvature="0" /></clipPath></defs><sodipodi:namedview
     pagecolor="#ffffff"
     bordercolor="#666666"
     borderopacity="1"
     objecttolerance="10"
     gridtolerance="10"
     guidetolerance="10"
     inkscape:pageopacity="0"
     inkscape:pageshadow="2"
     inkscape:window-width="2493"
     inkscape:window-height="1385"
     id="namedview4"
     showgrid="false"
     inkscape:zoom="0.88499993"
     inkscape:cx="318.17929"
     inkscape:cy="486.63091"
     inkscape:window-x="67"
     inkscape:window-y="27"
     inkscape:window-maximized="1"
     inkscape:current-layer="g10" /><g
     id="g10"
     inkscape:groupmode="layer"
     inkscape:label="105079-OMLEKC-676"
     transform="matrix(1.3333333,0,0,-1.3333333,0,1000.0025)"><g
   id="g302"
   transform="matrix(2.2202598,0,0,2.2202598,142.7674,394.49214)"><path
     d="m 0,0 c 19.867,0 38.214,-14.191 44.297,-41.154 -0.101,-0.609 -0.304,-0.609 -0.558,-0.76 -1.621,-1.419 -3.142,-2.23 -3.041,-6.031 h -9.681 c 0,0 -2.786,0.86 -3.395,2.787 -0.608,1.926 -2.635,13.127 -6.031,19.108 -3.396,5.98 -11.758,15.914 -24.835,15.914 -13.075,0 -21.388,-9.984 -30.155,-22.908 -2.382,-3.498 -4.612,-5.323 -4.816,-6.64 -0.303,-1.014 -0.81,-0.81 -1.064,-0.71 -0.253,0.101 -1.52,0.71 -1.064,2.027 0.456,1.318 2.636,8.008 3.345,9.884 0.71,1.875 2.129,8.109 2.129,10.441 0,2.33 2.128,8.058 3.497,9.527 1.368,1.471 1.926,1.774 3.7,2.687 C -25.898,-4.915 -14.09,0 0,0"
     style="fill:#ffb8b8;fill-opacity:1;fill-rule:evenodd;stroke:none"
     id="path304"
     inkscape:connector-curvature="0" /></g><g
   id="g306"
   transform="matrix(2.2202598,0,0,2.2202598,118.03859,392.35603)"><path
     d="m 0,0 c 7.148,3.529 17.303,5.799 23.555,6.842 7.299,1.216 15.814,2.179 27.875,2.381 1.369,1.015 2.94,2.838 3.649,4.106 0.71,1.266 0,3.243 -0.861,5.524 0,0 -6.69,-0.456 -11.404,-0.862 C 23.15,16.37 12.81,13.228 4.042,9.68 -4.725,6.131 -11.263,0.556 -13.341,-1.622 -14.54,-2.881 -15.283,-3.866 -15.697,-4.477 -13.396,-3.469 -7.554,-1.273 0,0"
     style="fill:#ffb8b8;fill-opacity:1;fill-rule:evenodd;stroke:none"
     id="path308"
     inkscape:connector-curvature="0" /></g><g
   id="g310"
   transform="matrix(2.2202598,0,0,2.2202598,665.12103,337.77693)"><path
     d="m 0,0 c -2.839,3.904 -9.022,18.652 -17.688,21.997 -1.533,0.591 -2.794,1.08 -3.842,1.486 0.014,-0.023 0.027,-0.044 0.04,-0.068 -1.317,0.508 -8.987,2.94 -14.867,3.076 -10.879,0.608 -21.217,-1.097 -27.858,-5.964 -6.319,-4.631 -16.725,-13.532 -18.702,-36.812 h -0.089 c 0.027,-0.403 0.103,-1.264 0.293,-1.757 0.253,-0.66 1.317,-2.28 0.101,-3.547 -0.253,-0.355 -0.152,-0.558 0.101,-0.609 1.623,-0.203 3.294,-0.861 5.626,-0.052 2.332,0.813 2.788,4.208 3.193,6.489 0.405,2.28 1.672,9.021 3.751,12.822 2.078,3.802 10.033,15.458 26.202,15.458 18.043,0 24.379,-12.265 28.737,-19.563 4.358,-7.299 10.998,-12.367 25.696,-12.215 l 2.585,0.051 C 10.085,-13.684 2.838,-3.902 0,0"
     style="fill:#ffb8b8;fill-opacity:1;fill-rule:evenodd;stroke:none"
     id="path312"
     inkscape:connector-curvature="0" /></g><g
   id="g314"
   transform="matrix(2.2202598,0,0,2.2202598,544.78983,428.85154)"><path
     d="m 0,0 v 0 c -0.743,-1.757 -2.027,-5.271 -8.986,-5.339 -6.962,-0.067 -40.952,0.744 -43.25,0.744 -2.298,0 -4.325,1.284 -4.325,3.92 v 21.826 c 0,2.434 1.825,4.325 4.731,4.325 3.919,0 18.515,-0.608 31.963,-5.541 C -6.419,15.002 -3.041,10.068 -1.283,7.636 0.474,5.204 0.743,1.757 0,0 M 32.418,-17.119 C 24.477,-7.793 15.111,1.036 10.948,4.663 6.759,8.312 -7.5,19.462 -22.84,23.449 c -15.308,3.978 -25.77,4.66 -35.752,4.663 l -0.536,-85.417 h 30.408 c 1.977,23.28 12.383,32.182 18.702,36.812 6.64,4.867 16.979,6.573 27.858,5.965 5.88,-0.137 13.549,-2.569 14.867,-3.076 -0.101,0.17 -0.192,0.324 -0.289,0.485"
     style="fill:#ffb8b8;fill-opacity:1;fill-rule:evenodd;stroke:none"
     id="path316"
     inkscape:connector-curvature="0" /></g><g
   id="g318"
   transform="matrix(2.2202598,0,0,2.2202598,257.47246,429.37619)"><path
     d="m 0,0 -1.944,1.317 c 0,0 -1.165,0.457 -2.736,1.319 0,0 -1.266,-0.153 -3.396,-0.406 0.71,-1.571 1.216,-3.801 1.166,-4.713 -0.051,-0.913 -1.825,-3.396 -4.055,-5.474 -1.165,-0.051 -13.532,-0.355 -26.355,-2.18 -10.431,-1.484 -19.454,-4.88 -22.455,-6.094 2.572,0.321 5.296,0.519 8.112,0.519 19.843,0 38.166,-14.156 44.272,-41.051 h 2.407 c 0,0 -0.355,33.551 -0.608,48.755 0,0 3.919,5.423 5.592,8.008"
     style="fill:#ffb8b8;fill-opacity:1;fill-rule:evenodd;stroke:none"
     id="path320"
     inkscape:connector-curvature="0" /></g><g
   id="g322"
   transform="matrix(2.2202598,0,0,2.2202598,631.82224,412.92829)"><path
     d="m 0,0 c 0,0 5.836,-5.699 6.757,-6.588 0.922,-0.888 0.376,-2.661 0.376,-2.661 l -2.389,-1.025 -5.017,2.184 -1.605,4.744 z"
     style="fill:#4b0000;fill-opacity:1;fill-rule:evenodd;stroke:none"
     id="path324"
     inkscape:connector-curvature="0" /></g><g
   id="g326"
   transform="matrix(2.2202598,0,0,2.2202598,620.70918,422.69987)"
   style="fill:#800000"><path
     d="m 0,0 1.352,-1.081 -0.675,-4.325 -2.028,-3.514 18.363,-9.577 4.394,-15.415 3.338,-9.778 -4.234,-2.382 -23.213,29.448 -5.88,1.094 3.448,7.15 0.675,5.136 z"
     style="fill:#800000;fill-opacity:1;fill-rule:evenodd;stroke:none"
     id="path328"
     inkscape:connector-curvature="0" /></g><g
   id="g330"
   transform="matrix(2.2202598,0,0,2.2202598,212.08569,290.06666)"><path
     d="m 0,0 c 0,0 -3.446,-5.676 -11.049,-8.007 -7.603,-2.332 -34.667,0.406 -34.667,0.406 L -57.372,5.576 c 0,0 -3.7,0.405 -4.562,0.049 -0.861,-0.355 -5.626,5.83 -5.626,5.83 l 8.768,13.481 8.312,9.63 18.854,5.371 15.408,-4.054 10.744,-14.292 6.538,-15.61 z"
     style="fill:#752e2f;fill-opacity:1;fill-rule:evenodd;stroke:none"
     id="path332"
     inkscape:connector-curvature="0" /></g><g
   id="g334"
   transform="matrix(2.2202598,0,0,2.2202598,496.17835,292.46654)"><path
     d="m 0,0 c 0,0 2.366,-3.378 3.379,-4.459 1.014,-1.081 2.499,-2.635 4.865,-3.717 2.365,-1.081 45.979,8.415 45.979,8.415 8.082,0 8.227,0.11 16.41,0.669 2.973,0.203 16.473,0.849 16.473,0.849 L 79.132,3.785 70.279,7.569 62.373,17.705 56.561,24.26 45.817,32.572 36.965,35.478 22.166,33.045 13.515,29.869 5.339,21.084 0.406,12.231 -0.675,2.771 Z"
     style="fill:#752e2f;fill-opacity:1;fill-rule:evenodd;stroke:none"
     id="path336"
     inkscape:connector-curvature="0" /></g><g
   id="g338"
   transform="matrix(2.2202598,0,0,2.2202598,245.46862,304.32183)"
   style="fill:#d40000"><path
     d="m 0,0 -2.974,-0.069 -2.567,-3.31 -0.406,-3.582 c 0,0 0.878,-0.742 1.69,-0.811 32.098,0.203 111.433,0.946 111.433,0.946 l 0.54,3.109 -0.878,1.555 0.012,1.723 -2.647,1.115 L 70.346,1.96 36.424,3.514 3.716,0.81 1.689,0.27 1.486,-0.069 Z"
     style="fill:#d40000;fill-opacity:1;fill-rule:evenodd;stroke:none"
     id="path340"
     inkscape:connector-curvature="0" /></g><g
   id="g342"
   transform="matrix(2.2202598,0,0,2.2202598,243.51613,310.17)"
   style="fill:#aa0000"><path
     d="m 0,0 0.541,-4.189 108.093,-0.026 8.108,22.187 54.937,21.182 -37.282,32.945 -10.892,5.16 -9.852,2.294 -18.05,2.959 L 82.107,85.859 76.496,83.795 40.817,82.714 23.382,78.119 16.76,73.253 3.786,52.71 -1.351,45.277 -2.297,15.678 Z"
     style="fill:#aa0000;fill-opacity:1;fill-rule:evenodd;stroke:none"
     id="path344"
     inkscape:connector-curvature="0" /></g><g
   id="g346"
   transform="matrix(2.2202598,0,0,2.2202598,-118.57094,-610.39943)"><g
     id="g348"
     clip-path="url(#clipPath352)"><g
       id="g354"><g
         id="g356"><path
           d="m 360.71,414.421 4.46,-6.185 c 0,0 1.182,0 1.657,1.048 v 0 c 0.471,1.048 -0.507,6.217 -0.507,6.217 v 0 z"
           style="fill:url(#linearGradient366);stroke:none"
           id="path368"
           inkscape:connector-curvature="0" /></g></g></g></g><g
   id="g378"
   transform="matrix(2.2202598,0,0,2.2202598,237.81649,433.65264)"><path
     d="m 0,0 1.115,-4.022 -3.818,-4.797 -15.34,-0.676 -19.969,-2.634 -16.893,-6.049 0.844,-1.048 3.75,0.338 16.117,5.001 21.625,2.467 11.082,0.777 4.123,4.494 -0.101,4.155 -1.218,2.096 z"
     style="fill:#df7223;fill-opacity:1;fill-rule:evenodd;stroke:none"
     id="path380"
     inkscape:connector-curvature="0" /></g><g
   id="g382"
   transform="matrix(2.2202598,0,0,2.2202598,402.29778,419.28422)"><path
     d="M 0,0 V 0 C -0.399,-0.121 -0.77,-0.176 -1.042,-0.2 -0.77,-0.177 -0.4,-0.121 0,0 m -1.184,29.127 v 0 c 2.027,0 3.648,-0.963 3.648,-3.599 V 3.43 c 0,-1.681 -0.775,-2.583 -1.638,-3.072 0.005,0.09 0.017,0.173 0.017,0.269 v 21.487 c 0,2.563 -1.42,3.499 -3.195,3.499 -1.773,0 -16.19,0.098 -22.489,-0.591 -6.299,-0.69 -12.997,-2.07 -17.387,-4.091 -4.393,-2.021 -5.901,-5.125 -6.611,-6.407 -0.709,-1.281 -4.613,-8.329 -5.234,-9.61 -0.621,-1.282 -1.02,-2.415 -1.02,-3.646 0,-0.356 0.031,-0.791 0.129,-1.24 -1.195,0.005 -2.023,0.007 -2.376,0.007 -3.599,0 -4.106,2.635 -4.106,4.054 0,1.268 0.457,2.433 1.167,3.751 0.71,1.317 5.169,8.565 5.98,9.883 0.811,1.318 2.534,4.511 7.552,6.589 5.017,2.077 12.67,3.497 19.867,4.207 7.197,0.709 23.669,0.608 25.696,0.608 M 0.826,0.351 v 0 0.007 C 0.76,0.32 0.693,0.28 0.626,0.245 0.692,0.278 0.76,0.314 0.826,0.351 m -2.314,-0.569 c 0,0 -0.197,0 -0.559,0.002 0.361,-0.002 0.559,-0.002 0.559,-0.002"
     style="fill:#050000;fill-opacity:1;fill-rule:evenodd;stroke:none"
     id="path384"
     inkscape:connector-curvature="0" /></g><g
   id="g386"
   transform="matrix(2.2202598,0,0,2.2202598,521.6041,429.39795)"><path
     d="m 0,0 v 0 c -0.63,-1.444 -1.715,-3.521 -7.679,-3.608 -5.158,-0.074 -28.18,0.536 -35.639,0.691 -1.134,0.622 -1.178,2.264 -1.178,2.264 0,0 0.067,6.759 0.067,10.813 l 0.06,10.504 c 3.57,0.004 15.88,-0.474 27.258,-4.403 C -5.566,12.276 -2.649,8.245 -1.134,6.258 0.383,4.27 0.629,1.444 0,0 m 9.16,7.39 c -1.758,2.432 -5.136,7.365 -18.584,12.299 -13.448,4.933 -28.045,5.541 -31.964,5.541 -2.905,0 -4.73,-1.891 -4.73,-4.325 V -0.921 c 0,-2.636 2.027,-3.921 4.324,-3.921 2.299,0 36.289,-0.811 43.25,-0.743 6.96,0.068 8.243,3.582 8.987,5.339 0.743,1.757 0.474,5.203 -1.283,7.636"
     style="fill:#050000;fill-opacity:1;fill-rule:evenodd;stroke:none"
     id="path388"
     inkscape:connector-curvature="0" /></g><g
   id="g390"
   transform="matrix(2.2202598,0,0,2.2202598,544.79116,481.21548)"><path
     d="m 0,0 c -0.067,-0.338 -0.54,-2.23 1.824,-4.258 2.366,-2.027 13.584,-12.163 16.152,-14.394 2.568,-2.23 5.068,-4.325 5.811,-4.527 0.743,-0.203 2.23,-0.744 3.176,0.135 0.847,0.786 1.528,1.667 1.954,2.824 -4.156,4.137 -11.319,9.815 -15.926,12.786 C 8.761,-4.704 1.595,-0.222 0.17,0.668 0.17,0.421 0.037,0.182 0,0"
     style="fill:#404041;fill-opacity:1;fill-rule:evenodd;stroke:none"
     id="path392"
     inkscape:connector-curvature="0" /></g><g
   id="g394"
   transform="matrix(2.2202598,0,0,2.2202598,82.828814,299.97034)"><path
     d="M 0,0 C 0,13.884 11.255,25.138 25.138,25.138 39.022,25.138 50.277,13.884 50.277,0 50.277,-13.883 39.022,-25.139 25.138,-25.139 11.255,-25.139 0,-13.883 0,0"
     style="fill:#363638;fill-opacity:1;fill-rule:evenodd;stroke:none"
     id="path396"
     inkscape:connector-curvature="0" /></g><g
   id="g398"
   transform="matrix(2.2202598,0,0,2.2202598,92.130597,299.97034)"><path
     d="m 0,0 c 0,11.569 9.379,20.948 20.948,20.948 11.571,0 20.95,-9.379 20.95,-20.948 0,-11.571 -9.379,-20.949 -20.95,-20.949 C 9.379,-20.949 0,-11.571 0,0"
     style="fill:#dfe0e2;fill-opacity:1;fill-rule:evenodd;stroke:none"
     id="path400"
     inkscape:connector-curvature="0" /></g><g
   id="g402"
   transform="matrix(2.2202598,0,0,2.2202598,101.13264,299.97034)"><path
     d="m 0,0 c 0,9.329 7.564,16.894 16.894,16.894 9.331,0 16.894,-7.565 16.894,-16.894 0,-9.331 -7.563,-16.895 -16.894,-16.895 C 7.564,-16.895 0,-9.331 0,0"
     style="fill:#6a6c72;fill-opacity:1;fill-rule:evenodd;stroke:none"
     id="path404"
     inkscape:connector-curvature="0" /></g><g
   id="g406"
   transform="matrix(2.2202598,0,0,2.2202598,109.89667,299.97034)"><path
     d="m 0,0 c 0,7.149 5.797,12.947 12.946,12.947 7.152,0 12.948,-5.798 12.948,-12.947 0,-7.15 -5.796,-12.948 -12.948,-12.948 C 5.797,-12.948 0,-7.15 0,0"
     style="fill:#363638;fill-opacity:1;fill-rule:evenodd;stroke:none"
     id="path408"
     inkscape:connector-curvature="0" /></g><g
   id="g410"
   transform="matrix(2.2202598,0,0,2.2202598,116.58743,299.97034)"><path
     d="m 0,0 c 0,5.485 4.447,9.933 9.933,9.933 5.486,0 9.934,-4.448 9.934,-9.933 0,-5.487 -4.448,-9.935 -9.934,-9.935 C 4.447,-9.935 0,-5.487 0,0"
     style="fill:#898d94;fill-opacity:1;fill-rule:evenodd;stroke:none"
     id="path412"
     inkscape:connector-curvature="0" /></g><g
   id="g414"
   transform="matrix(2.2202598,0,0,2.2202598,509.68286,297.26874)"><path
     d="M 0,0 C 0,13.884 11.255,25.139 25.138,25.139 39.022,25.139 50.277,13.884 50.277,0 50.277,-13.883 39.022,-25.138 25.138,-25.138 11.255,-25.138 0,-13.883 0,0"
     style="fill:#363638;fill-opacity:1;fill-rule:evenodd;stroke:none"
     id="path416"
     inkscape:connector-curvature="0" /></g><g
   id="g418"
   transform="matrix(2.2202598,0,0,2.2202598,518.98465,297.26874)"><path
     d="m 0,0 c 0,11.57 9.379,20.949 20.948,20.949 11.571,0 20.95,-9.379 20.95,-20.949 0,-11.569 -9.379,-20.949 -20.95,-20.949 C 9.379,-20.949 0,-11.569 0,0"
     style="fill:#dfe0e2;fill-opacity:1;fill-rule:evenodd;stroke:none"
     id="path420"
     inkscape:connector-curvature="0" /></g><g
   id="g422"
   transform="matrix(2.2202598,0,0,2.2202598,527.98558,297.26874)"><path
     d="m 0,0 c 0,9.331 7.564,16.894 16.894,16.894 9.332,0 16.895,-7.563 16.895,-16.894 0,-9.33 -7.563,-16.894 -16.895,-16.894 C 7.564,-16.894 0,-9.33 0,0"
     style="fill:#6a6c72;fill-opacity:1;fill-rule:evenodd;stroke:none"
     id="path424"
     inkscape:connector-curvature="0" /></g><g
   id="g426"
   transform="matrix(2.2202598,0,0,2.2202598,536.75072,297.26874)"><path
     d="m 0,0 c 0,7.151 5.797,12.947 12.946,12.947 7.151,0 12.947,-5.796 12.947,-12.947 0,-7.15 -5.796,-12.947 -12.947,-12.947 C 5.797,-12.947 0,-7.15 0,0"
     style="fill:#363638;fill-opacity:1;fill-rule:evenodd;stroke:none"
     id="path428"
     inkscape:connector-curvature="0" /></g><g
   id="g430"
   transform="matrix(2.2202598,0,0,2.2202598,543.44014,297.26874)"><path
     d="m 0,0 c 0,5.487 4.448,9.933 9.933,9.933 5.487,0 9.934,-4.446 9.934,-9.933 0,-5.486 -4.447,-9.933 -9.934,-9.933 C 4.448,-9.933 0,-5.486 0,0"
     style="fill:#898d94;fill-opacity:1;fill-rule:evenodd;stroke:none"
     id="path432"
     inkscape:connector-curvature="0" /></g><g
   id="g434"
   transform="matrix(2.2202598,0,0,2.2202598,65.353371,343.92061)"><path
     d="m 0,0 c 0.335,0.384 2.386,0.829 3.202,1.203 0.039,2.372 -1.063,11.604 0.293,13.06 0.084,0.09 0.166,0.176 0.244,0.258 C 2.646,14.137 -0.581,14.055 -1.116,13.807 -3.085,12.9 -1.988,5.095 -2.127,3.066 -2.127,3.066 -0.383,-0.438 0,0"
     style="fill:#ffb8b8;fill-opacity:1;fill-rule:evenodd;stroke:none"
     id="path436"
     inkscape:connector-curvature="0" /></g><g
   id="g438"
   transform="matrix(2.2202598,0,0,2.2202598,257.47246,429.37619)"
   style="fill:#ff2a2a"><path
     d="m 0,0 -1.944,1.317 c 0,0 2.848,1.271 1.276,2.133 0,0 -5.278,-0.967 -7.408,-1.22 0.71,-1.571 1.216,-3.801 1.166,-4.713 -0.051,-0.913 -1.825,-3.396 -4.055,-5.474 -1.165,-0.051 -13.532,-0.355 -26.355,-2.18 -10.431,-1.484 -19.454,-4.88 -22.455,-6.094 2.572,0.321 5.296,0.519 8.112,0.519 19.843,0 38.166,-14.156 44.272,-41.051 h 2.407 c 0,0 -0.355,33.551 -0.608,48.755 0,0 3.919,5.423 5.592,8.008"
     style="fill:#ff2a2a;fill-opacity:1;fill-rule:evenodd;stroke:none"
     id="path440"
     inkscape:connector-curvature="0" /></g><g
   id="g442"
   transform="matrix(2.2202598,0,0,2.2202598,541.94058,445.805)"><path
     d="m 0,0 c -1.757,2.433 -5.136,7.366 -18.584,12.299 -13.448,4.933 -28.044,5.541 -31.963,5.541 -2.905,0 -4.731,-1.891 -4.731,-4.325 V -8.311 c 0,-2.636 2.027,-3.92 4.325,-3.92 2.298,0 36.289,-0.811 43.25,-0.744 6.96,0.068 8.243,3.582 8.986,5.339 C 2.027,-5.879 1.757,-2.432 0,0"
     style="fill:#35aade;fill-opacity:1;fill-rule:evenodd;stroke:none"
     id="path444"
     inkscape:connector-curvature="0" /></g><path
   inkscape:connector-curvature="0"
   id="path448"
   style="fill:#ff2a2a;fill-opacity:1;fill-rule:evenodd;stroke:none;stroke-width:2.22025967"
   d="m 486.30486,482.85292 v 0 c 1.008,-0.23979 2.0271,-0.48846 3.05508,-0.74157 z m -25.06895,5.00668 v 0 c 1.24556,-0.19538 2.50445,-0.40187 3.7811,-0.62166 -1.27665,0.21979 -2.53776,0.42406 -3.7811,0.62166 M 615.9103,408.59633 c 4.65145,6.90057 4.35171,8.40147 6.15012,14.10309 0,0 -9.75138,11.55201 -12.75095,14.55603 -0.90143,-3.03954 -2.55108,-5.25314 -4.65366,-7.20475 -2.10036,-1.94938 -5.4019,-0.75045 -7.05155,-0.29973 -1.64965,0.45071 -7.2003,5.10215 -12.90193,10.05111 -5.70163,4.95341 -30.60628,27.45795 -35.85941,31.95842 -5.25091,4.50269 -4.20074,8.70564 -4.05198,9.45609 0.1532,0.74822 1.05241,1.94939 -0.59947,2.84637 -43.52597,23.10403 -190.97119,34.08543 -236.18679,13.94102 -14.99564,-6.68077 -27.72883,-18.85001 -39.73155,-40.94604 -2.39122,-4.40722 -12.822,-20.88598 -15.2443,-24.70482 0.0844,-0.0355 0.12877,-0.051 0.12877,-0.051 l 1.76733,-1.19895 c -5.55287,-8.93654 -11.17901,-17.59778 -11.17901,-17.59778 l 0.58615,-110.16262 169.26817,-0.67497 v -0.006 h 1.96049 65.55317 c 4.38944,51.68543 27.40466,70.40888 41.43448,80.6909 14.74252,10.806 37.69557,14.59377 61.852,13.24385 13.05512,-0.30418 30.08452,-5.70385 33.0086,-6.82952 -0.22646,0.37523 -0.42851,0.71714 -0.64165,1.07461 -11.84509,13.91437 -25.12224,27.32695 -35.35986,37.07612 10.33975,-9.84242 23.7701,-23.42152 35.704,-37.47577 -1.5009,2.55108 -5.85261,11.2545 -1.20117,18.15506" /><g
   id="g450"
   transform="matrix(2.2202598,0,0,2.2202598,407.76939,475.96301)"><path
     d="m 0,0 c 0,2.636 -1.621,3.599 -3.649,3.599 -2.027,0 -18.498,0.101 -25.695,-0.608 -7.197,-0.71 -14.85,-2.13 -19.868,-4.207 -5.017,-2.078 -6.74,-5.271 -7.551,-6.589 -0.811,-1.318 -5.271,-8.566 -5.981,-9.883 -0.709,-1.318 -1.166,-2.483 -1.166,-3.751 0,-1.419 0.507,-4.054 4.106,-4.054 3.598,0 55.851,-0.253 55.851,-0.253 0,0 3.953,-0.152 3.953,3.648 z"
     style="fill:#35aade;fill-opacity:1;fill-rule:evenodd;stroke:none"
     id="path452"
     inkscape:connector-curvature="0" /></g><g
   id="g454"
   transform="matrix(2.2202598,0,0,2.2202598,126.11389,391.71547)"
   style="fill:#ff2a2a"><path
     d="m 0,0 c 7.336,3.529 15.136,4.035 21.553,5.077 7.492,1.217 14.891,2.965 27.271,3.168 1.404,1.014 3.756,4.105 4.484,5.372 0.728,1.267 0,3.244 -0.884,5.525 0,0 -6.866,-0.457 -11.705,-0.862 C 20.537,16.659 9.925,13.516 0.925,9.969 -8.073,6.42 -14.784,0.845 -16.916,-1.334 -18.147,-2.592 -18.908,-3.578 -19.334,-4.188 -16.973,-3.18 -7.754,-1.272 0,0"
     style="fill:#ff2a2a;fill-opacity:1;fill-rule:evenodd;stroke:none"
     id="path456"
     inkscape:connector-curvature="0" /></g><g
   id="g458"
   transform="matrix(2.2202598,0,0,2.2202598,81.32792,381.55202)"
   style="fill:#d40000"><path
     d="m 0,0 c -1.774,-0.913 -2.332,-1.216 -3.7,-2.686 -1.368,-1.47 -3.497,-7.197 -3.497,-9.528 0,-2.332 -1.419,-8.565 -2.129,-10.441 -0.709,-1.875 -2.888,-8.566 -3.344,-9.883 -0.456,-1.318 0.81,-1.927 1.064,-2.028 0.253,-0.1 0.76,-0.303 1.064,0.71 0.203,1.318 2.433,3.143 4.815,6.64 8.768,12.924 17.08,22.908 30.156,22.908 13.076,0 21.438,-9.934 24.834,-15.914 3.396,-5.98 5.423,-17.182 6.031,-19.108 0.609,-1.926 3.395,-2.787 3.395,-2.787 h 9.681 c -0.101,3.802 1.42,4.613 3.041,6.031 0.254,0.152 0.457,0.152 0.558,0.761 C 65.887,-8.363 47.539,5.828 27.672,5.828 13.582,5.828 1.774,0.913 0,0"
     style="fill:#d40000;fill-opacity:1;fill-rule:evenodd;stroke:none"
     id="path460"
     inkscape:connector-curvature="0" /></g><g
   id="g462"
   transform="matrix(2.2202598,0,0,2.2202598,665.12103,337.77693)"
   style="fill:#ff2a2a"><path
     d="m 0,0 c 0.963,-1.323 2.433,-3.324 4.081,-5.607 l 3.774,0.945 C 5.227,-3.3 3.26,21.898 -19.158,38.114 c 0,0 -0.152,-2.788 -1.014,-4.156 -0.862,-1.368 -1.724,-2.991 -2.026,-3.599 -0.299,-0.594 -1.024,-2.505 1.218,-7.089 C -9.745,17.677 -7.523,10.345 0,0"
     style="fill:#ff2a2a;fill-opacity:1;fill-rule:evenodd;stroke:none"
     id="path464"
     inkscape:connector-curvature="0" /></g><g
   id="g466"
   transform="matrix(2.2202598,0,0,2.2202598,701.81259,296.36842)"
   style="fill:#b3b3b3"><path
     d="m 0,0 h -10.983 c -2.28,0 -4.128,1.694 -4.128,3.783 v 6.685 c 0,2.091 1.848,3.784 4.128,3.784 H 0 c 2.279,0 4.128,-1.693 4.128,-3.784 V 3.783 C 4.128,1.694 2.279,0 0,0"
     style="fill:#b3b3b3;fill-opacity:1;fill-rule:evenodd;stroke:none"
     id="path468"
     inkscape:connector-curvature="0" /></g><g
   id="g470"
   transform="matrix(2.2202598,0,0,2.2202598,126.17584,299.97034)"><path
     d="M 0,0 C 0,3.101 2.514,5.614 5.614,5.614 8.717,5.614 11.23,3.101 11.23,0 11.23,-3.102 8.717,-5.615 5.614,-5.615 2.514,-5.615 0,-3.102 0,0"
     style="fill:#dfe2e4;fill-opacity:1;fill-rule:evenodd;stroke:none"
     id="path472"
     inkscape:connector-curvature="0" /></g><g
   id="g474"
   transform="matrix(2.2202598,0,0,2.2202598,553.02988,297.26874)"><path
     d="M 0,0 C 0,3.101 2.514,5.615 5.614,5.615 8.716,5.615 11.23,3.101 11.23,0 11.23,-3.101 8.716,-5.615 5.614,-5.615 2.514,-5.615 0,-3.101 0,0"
     style="fill:#dfe2e4;fill-opacity:1;fill-rule:evenodd;stroke:none"
     id="path476"
     inkscape:connector-curvature="0" /></g><g
   id="g478"
   transform="matrix(2.2202598,0,0,2.2202598,376.31608,400.79856)"><path
     d="m 0,0 c 0,0 1.772,0.566 6.102,0.763 4.33,0.196 6.989,0.319 8.367,0.27 0.369,0 0.542,-0.148 0.542,-0.615 0,-0.468 0.024,-1.231 0.024,-1.476 0,-0.247 -0.197,-0.321 -0.517,-0.321 -0.32,0 -6.889,0.665 -9.892,0.615 C 1.623,-0.813 0.393,-0.96 0.122,-0.96 -0.149,-0.96 -0.542,-0.172 0,0"
     style="fill:#6e2728;fill-opacity:1;fill-rule:evenodd;stroke:none"
     id="path480"
     inkscape:connector-curvature="0" /></g><g
   id="g482"
   transform="matrix(2.2202598,0,0,2.2202598,660.83393,344.81448)"
   style="fill:#aa0000"><path
     d="m 0,0 c 0.293,0.569 0.51,1.326 0.613,2.338 0.17,1.656 -0.102,7.941 -0.102,7.941 -0.067,1.352 -1.148,3.446 -1.419,3.987 -0.27,0.541 -0.878,1.148 -1.756,1.284 -0.878,0.135 -2.838,0.27 -4.934,0.27 -1.225,0 -2.701,0.116 -3.72,0.212 C -6.414,11.768 -2.568,4.543 0,0"
     style="fill:#aa0000;fill-opacity:1;fill-rule:evenodd;stroke:none"
     id="path484"
     inkscape:connector-curvature="0" /></g><g
   id="g486"
   transform="matrix(2.2202598,0,0,2.2202598,661.85369,368.59613)"
   style="fill:#aa0000"><path
     d="m 0,0 c -0.228,1.328 -1.123,3.068 -1.367,3.555 -0.27,0.54 -0.878,1.148 -1.756,1.284 -0.879,0.135 -2.839,0.27 -4.934,0.27 -1.226,0 -2.701,0.116 -3.72,0.212 1.76,-1.53 3.384,-3.439 4.86,-5.472 1.759,-2.419 3.308,-5.006 4.634,-7.328 0.86,-0.05 1.805,-0.096 2.481,-0.092 0.063,2.306 -0.146,7.139 -0.146,7.139 C 0.045,-0.296 0.026,-0.151 0,0"
     style="fill:#aa0000;fill-opacity:1;fill-rule:evenodd;stroke:none"
     id="path488"
     inkscape:connector-curvature="0" /></g><g
   id="g490"
   transform="matrix(2.2202598,0,0,2.2202598,72.963761,302.55628)"
   style="fill:#cccccc"><path
     d="m 0,0 h -11.111 c -2.306,0 -4.176,1.87 -4.176,4.176 v 7.378 c 0,2.306 1.87,4.176 4.176,4.176 H 0 c 2.306,0 4.176,-1.87 4.176,-4.176 V 4.176 C 4.176,1.87 2.306,0 0,0"
     style="fill:#cccccc;fill-opacity:1;fill-rule:evenodd;stroke:none"
     id="path492"
     inkscape:connector-curvature="0" /></g><g
   id="g494"
   transform="matrix(2.2202598,0,0,2.2202598,404.13105,420.07907)"><path
     d="M 0,0 C 0.863,0.489 1.639,1.391 1.639,3.072 V 25.17 c 0,2.636 -1.622,3.599 -3.649,3.599 -2.027,0 -18.499,0.101 -25.696,-0.609 -7.197,-0.709 -14.85,-2.129 -19.867,-4.206 -5.017,-2.078 -6.741,-5.271 -7.552,-6.589 -0.811,-1.318 -5.27,-8.566 -5.98,-9.883 -0.71,-1.318 -1.167,-2.483 -1.167,-3.751 0,-1.419 0.507,-4.054 4.107,-4.054 0.353,0 1.177,-0.002 2.375,-0.007 10.99,-0.04 53.476,-0.246 53.476,-0.246 0,0 1.082,-0.042 2.114,0.463 z"
     style="fill:#404041;fill-opacity:1;fill-rule:evenodd;stroke:none"
     id="path496"
     inkscape:connector-curvature="0" /></g><g
   id="g498"
   transform="matrix(2.2202598,0,0,2.2202598,419.20994,475.81159)"><path
     d="m 0,0 v -21.826 c 0,-2.636 2.027,-3.92 4.324,-3.92 2.299,0 36.289,-0.811 43.251,-0.744 6.959,0.068 8.243,3.582 8.986,5.339 0.743,1.757 0.474,5.204 -1.283,7.636 -1.758,2.433 -5.136,7.366 -18.584,12.299 C 23.246,3.717 8.65,4.325 4.731,4.325 1.825,4.325 0,2.434 0,0"
     style="fill:#404041;fill-opacity:1;fill-rule:evenodd;stroke:none"
     id="path500"
     inkscape:connector-curvature="0" /></g><g
   id="g502"
   transform="matrix(2.2202598,0,0,2.2202598,269.29956,414.58215)"><path
     d="m 0,0 c -3.092,0.064 -5.582,3.157 -5.582,6.963 0,3.806 2.49,6.899 5.582,6.964 z"
     style="fill:#525458;fill-opacity:1;fill-rule:evenodd;stroke:none"
     id="path504"
     inkscape:connector-curvature="0" /></g><g
   id="g506"
   transform="matrix(2.2202598,0,0,2.2202598,664.45517,337.33377)"
   style="fill:#d40000"><path
     d="M 0,0 C -11.021,15.155 -14.803,24.89 -36.097,26.211 -46.976,26.818 -56.234,25.273 -62.874,20.407 -81.139,7.804 -81.668,-12.508 -81.377,-16.41 l -1.137,-0.04 c 0.254,-0.659 1.418,-3.673 0.202,-4.94 -0.253,-0.354 -0.152,-0.558 0.101,-0.609 1.622,-0.202 3.294,-0.86 5.626,-0.051 2.332,0.812 2.788,4.208 3.193,6.489 0.405,2.279 1.672,9.021 3.751,12.822 2.078,3.802 10.033,15.458 26.202,15.458 18.043,0 24.379,-12.266 28.737,-19.563 4.358,-7.299 10.998,-12.368 25.696,-12.216 l 2.585,0.052 C 9.789,-12.452 4.485,-6.152 0,0"
     style="fill:#d40000;fill-opacity:1;fill-rule:evenodd;stroke:none"
     id="path508"
     inkscape:connector-curvature="0" /></g>


</g></svg>