<?xml version="1.0" encoding="UTF-8" standalone="no"?>
<!-- Created with Inkscape (http://www.inkscape.org/) -->

<svg
   xmlns:dc="http://purl.org/dc/elements/1.1/"
   xmlns:cc="http://creativecommons.org/ns#"
   xmlns:rdf="http://www.w3.org/1999/02/22-rdf-syntax-ns#"
   xmlns:svg="http://www.w3.org/2000/svg"
   xmlns="http://www.w3.org/2000/svg"
   xmlns:sodipodi="http://sodipodi.sourceforge.net/DTD/sodipodi-0.dtd"
   xmlns:inkscape="http://www.inkscape.org/namespaces/inkscape"
   version="1.1"
   id="svg150"
   xml:space="preserve"
   width="670.66669"
   height="520.66669"
   viewBox="0 0 670.66669 520.66669"
   sodipodi:docname="DSM_404_raw.svg"
   inkscape:version="0.92.3 (2405546, 2018-03-11)"
   inkscape:export-filename="/home/hugo/Desktop/gestao-escola-conducao/dsm-frontend/src/images/DSM_404.png"
   inkscape:export-xdpi="300"
   inkscape:export-ydpi="300"><metadata
     id="metadata156"><rdf:RDF><cc:Work
         rdf:about=""><dc:format>image/svg+xml</dc:format><dc:type
           rdf:resource="http://purl.org/dc/dcmitype/StillImage" /><dc:title></dc:title></cc:Work></rdf:RDF></metadata><defs
     id="defs154"><clipPath
       clipPathUnits="userSpaceOnUse"
       id="clipPath168"><path
         d="M 0,500 H 500 V 0 H 0 Z"
         id="path166"
         inkscape:connector-curvature="0" /></clipPath><clipPath
       clipPathUnits="userSpaceOnUse"
       id="clipPath228"><path
         d="M 0,500 H 500 V 0 H 0 Z"
         id="path226"
         inkscape:connector-curvature="0" /></clipPath><clipPath
       clipPathUnits="userSpaceOnUse"
       id="clipPath246"><path
         d="m 150.601,284.938 h 19.584 v -15.964 h -19.584 z"
         id="path244"
         inkscape:connector-curvature="0" /></clipPath><clipPath
       clipPathUnits="userSpaceOnUse"
       id="clipPath288"><path
         d="m 329.426,284.938 h 19.585 v -15.964 h -19.585 z"
         id="path286"
         inkscape:connector-curvature="0" /></clipPath><clipPath
       clipPathUnits="userSpaceOnUse"
       id="clipPath352"><path
         d="M 141.851,254.766 H 357.76 v -5.513 H 141.851 Z"
         id="path350"
         inkscape:connector-curvature="0" /></clipPath><clipPath
       clipPathUnits="userSpaceOnUse"
       id="clipPath416"><path
         d="m 392.717,194.058 h 21.864 V 122.07 h -21.864 z"
         id="path414"
         inkscape:connector-curvature="0" /></clipPath><clipPath
       clipPathUnits="userSpaceOnUse"
       id="clipPath432"><path
         d="m 359.644,122.07 h 64.917 v -4.57 h -64.917 z"
         id="path430"
         inkscape:connector-curvature="0" /></clipPath><clipPath
       clipPathUnits="userSpaceOnUse"
       id="clipPath468"><path
         d="M 108.126,194.058 H 129.99 V 122.07 h -21.864 z"
         id="path466"
         inkscape:connector-curvature="0" /></clipPath><clipPath
       clipPathUnits="userSpaceOnUse"
       id="clipPath484"><path
         d="M 75.0513,122.07 H 139.968 V 117.5 H 75.0513 Z"
         id="path482"
         inkscape:connector-curvature="0" /></clipPath><clipPath
       clipPathUnits="userSpaceOnUse"
       id="clipPath514"><path
         d="M 0,500 H 500 V 0 H 0 Z"
         id="path512"
         inkscape:connector-curvature="0" /></clipPath></defs><sodipodi:namedview
     pagecolor="#ffffff"
     bordercolor="#666666"
     borderopacity="1"
     objecttolerance="10"
     gridtolerance="10"
     guidetolerance="10"
     inkscape:pageopacity="0"
     inkscape:pageshadow="2"
     inkscape:window-width="2493"
     inkscape:window-height="1385"
     id="namedview152"
     showgrid="false"
     showguides="true"
     inkscape:guide-bbox="true"
     inkscape:zoom="1.0012632"
     inkscape:cx="274.57055"
     inkscape:cy="218.55553"
     inkscape:window-x="67"
     inkscape:window-y="27"
     inkscape:window-maximized="1"
     inkscape:current-layer="g158"><sodipodi:guide
       position="335.5761,707.10679"
       orientation="1,0"
       id="guide182"
       inkscape:locked="false" /></sodipodi:namedview><g
     id="g158"
     inkscape:groupmode="layer"
     inkscape:label="228621-P25A71-715"
     transform="matrix(1.3333333,0,0,-1.3333333,0,520.6667)"><g
   id="g162"
   transform="matrix(1.3002237,0,0,1.4247077,-72.050153,-214.20918)"
   inkscape:export-filename="/home/hugo/Desktop/gestao-escola-conducao/dsm-frontend/src/images/DSM_404.png"
   inkscape:export-xdpi="300"
   inkscape:export-ydpi="300"><g
     id="g164"
     clip-path="url(#clipPath168)"><g
       id="g170"
       transform="translate(369.9551,287.1147)"><path
         d="m 0,0 c 0,-67.008 -54.321,-121.329 -121.329,-121.329 -67.007,0 -158.451,10.272 -158.451,77.282 0,67.006 91.444,165.376 158.451,165.376 C -54.321,121.329 0,67.008 0,0"
         style="fill:#e6e7e8;fill-opacity:1;fill-rule:nonzero;stroke:none"
         id="path172"
         inkscape:connector-curvature="0" /></g><g
       id="g174"
       transform="translate(352.6104,162.4111)"><path
         d="m 0,0 c -45.763,0 -82.863,30.728 -82.863,68.63 0,37.904 7.015,89.629 52.78,89.629 C 15.681,158.26 82.863,106.534 82.863,68.63 82.863,30.726 45.764,0 0,0"
         style="fill:#e6e7e8;fill-opacity:1;fill-rule:nonzero;stroke:none"
         id="path176"
         inkscape:connector-curvature="0" /></g><g
       id="g178"
       transform="translate(286.6523,392.791)"><path
         d="m 0,0 c 0,3.913 -3.173,7.087 -7.087,7.087 -1.031,0 -2.008,-0.226 -2.892,-0.622 0.406,1.086 0.631,2.263 0.631,3.492 0,5.498 -4.458,9.956 -9.958,9.956 -3.046,0 -5.769,-1.369 -7.596,-3.524 -0.444,5.089 -4.711,9.082 -9.917,9.082 -5.307,0 -9.643,-4.153 -9.938,-9.387 -1.045,0.606 -2.254,0.959 -3.549,0.959 -3.913,0 -7.087,-3.173 -7.087,-7.086 0,-1.036 0.228,-2.016 0.626,-2.902 -0.206,0.019 -0.415,0.032 -0.626,0.032 -3.912,0 -7.086,-3.174 -7.086,-7.087 0,-3.532 2.586,-6.452 5.968,-6.99 l -0.004,-0.007 h 0.051 c 0.351,-0.053 0.707,-0.089 1.071,-0.089 0.366,0 0.721,0.036 1.071,0.089 h 48.165 c 0.349,-0.053 0.705,-0.089 1.07,-0.089 0.365,0 0.722,0.036 1.07,0.089 h 0.053 l -10e-4,0.008 C -2.585,-6.451 0,-3.531 0,0"
         style="fill:#ffffff;fill-opacity:1;fill-rule:nonzero;stroke:none"
         id="path180"
         inkscape:connector-curvature="0" /></g><g
       id="g182"
       transform="translate(282.7842,389.0732)"><path
         d="m 0,0 h -0.052 c -0.349,-0.053 -0.705,-0.089 -1.07,-0.089 -0.366,0 -0.722,0.036 -1.071,0.089 h -48.164 c -0.351,-0.053 -0.706,-0.089 -1.072,-0.089 -0.363,0 -0.719,0.036 -1.071,0.089 h -0.05 l 0.003,0.008 c -3.381,0.537 -5.968,3.458 -5.968,6.99 0,0.648 0.095,1.273 0.258,1.87 -1.37,-1.292 -2.229,-3.118 -2.229,-5.15 0,-3.532 2.587,-6.452 5.967,-6.99 l -0.002,-0.007 h 0.051 c 0.35,-0.054 0.705,-0.09 1.07,-0.09 0.365,0 0.722,0.036 1.071,0.09 h 48.165 c 0.35,-0.054 0.705,-0.09 1.069,-0.09 0.366,0 0.722,0.036 1.073,0.09 h 0.051 l -0.002,0.008 C 0.79,-2.831 3.021,-0.798 3.744,1.858 2.73,0.902 1.437,0.237 -0.003,0.008 Z"
         style="fill:#93b9d5;fill-opacity:1;fill-rule:nonzero;stroke:none"
         id="path184"
         inkscape:connector-curvature="0" /></g><g
       id="g186"
       transform="translate(230.3306,387.0903)"><path
         d="m 0,0 h 48.165 c 0.063,0 0.127,-0.005 0.191,-0.014 0.676,-0.102 1.082,-0.102 1.752,-10e-4 0.015,0.003 0.03,0.006 0.044,0.008 2.824,0.449 4.872,2.85 4.872,5.708 0,3.192 -2.597,5.789 -5.789,5.789 -0.815,0 -1.609,-0.171 -2.361,-0.508 -0.479,-0.215 -1.038,-0.12 -1.419,0.238 -0.381,0.358 -0.51,0.91 -0.328,1.4 0.364,0.973 0.549,1.995 0.549,3.038 0,4.775 -3.884,8.659 -8.66,8.659 -2.548,0 -4.956,-1.118 -6.607,-3.066 -0.339,-0.399 -0.884,-0.556 -1.383,-0.397 -0.499,0.158 -0.853,0.602 -0.899,1.123 -0.385,4.428 -4.173,7.898 -8.625,7.898 -4.587,0 -8.384,-3.585 -8.643,-8.163 -0.026,-0.45 -0.283,-0.854 -0.679,-1.068 -0.398,-0.214 -0.876,-0.207 -1.266,0.02 -0.884,0.512 -1.886,0.783 -2.898,0.783 -3.192,0 -5.789,-2.597 -5.789,-5.789 0,-0.818 0.172,-1.615 0.511,-2.371 0.189,-0.42 0.141,-0.909 -0.127,-1.283 -0.266,-0.376 -0.712,-0.584 -1.171,-0.54 -0.168,0.015 -0.338,0.026 -0.511,0.026 -3.192,0 -5.79,-2.597 -5.79,-5.789 0,-2.859 2.05,-5.26 4.876,-5.709 0.008,-0.002 0.017,-0.003 0.026,-0.005 0.003,0 0.006,-0.001 0.009,-0.001 0.679,-0.102 1.084,-0.102 1.758,0 C -0.128,-0.005 -0.064,0 0,0 m 49.235,-2.682 c -0.365,0 -0.737,0.028 -1.165,0.088 H 0.095 c -0.878,-0.124 -1.512,-0.121 -2.407,0.011 -0.028,0.003 -0.054,0.008 -0.082,0.013 v 0 c -4.091,0.651 -7.06,4.13 -7.06,8.271 0,4.238 3.162,7.753 7.251,8.307 -0.109,0.541 -0.164,1.092 -0.164,1.65 0,4.622 3.761,8.383 8.383,8.383 0.849,0 1.692,-0.131 2.501,-0.385 1.118,5.065 5.637,8.812 10.985,8.812 5.033,0 9.288,-3.233 10.73,-7.833 1.936,1.465 4.31,2.276 6.784,2.276 6.206,0 11.254,-5.048 11.254,-11.253 0,-0.554 -0.04,-1.102 -0.12,-1.644 0.358,0.047 0.721,0.07 1.085,0.07 4.622,0 8.384,-3.761 8.384,-8.383 0,-4.089 -2.895,-7.532 -6.906,-8.243 -0.098,-0.03 -0.202,-0.047 -0.307,-0.051 -0.425,-0.06 -0.809,-0.089 -1.171,-0.089"
         style="fill:#175c6c;fill-opacity:1;fill-rule:nonzero;stroke:none"
         id="path188"
         inkscape:connector-curvature="0" /></g><g
       id="g190"
       transform="translate(174.0908,320.9141)"><path
         d="m 0,0 c 0,3.914 -3.173,7.087 -7.087,7.087 -1.031,0 -2.009,-0.225 -2.892,-0.622 0.406,1.087 0.631,2.263 0.631,3.493 0,5.497 -4.458,9.956 -9.958,9.956 -3.045,0 -5.769,-1.37 -7.596,-3.525 -0.444,5.089 -4.712,9.082 -9.917,9.082 -5.307,0 -9.643,-4.153 -9.938,-9.386 -1.045,0.606 -2.254,0.959 -3.549,0.959 -3.913,0 -7.087,-3.174 -7.087,-7.086 0,-1.037 0.228,-2.017 0.626,-2.903 -0.206,0.018 -0.414,0.032 -0.626,0.032 -3.912,0 -7.085,-3.173 -7.085,-7.087 0,-3.531 2.586,-6.451 5.967,-6.989 l -0.004,-0.009 h 0.052 c 0.35,-0.051 0.706,-0.088 1.07,-0.088 0.366,0 0.722,0.037 1.072,0.088 h 48.163 c 0.351,-0.051 0.706,-0.088 1.071,-0.088 0.366,0 0.721,0.037 1.071,0.088 h 0.053 l -0.002,0.01 C -2.586,-6.451 0,-3.53 0,0"
         style="fill:#ffffff;fill-opacity:1;fill-rule:nonzero;stroke:none"
         id="path192"
         inkscape:connector-curvature="0" /></g><g
       id="g194"
       transform="translate(170.2231,317.1963)"><path
         d="m 0,0 h -0.052 c -0.35,-0.053 -0.706,-0.089 -1.071,-0.089 -0.365,0 -0.721,0.036 -1.071,0.089 h -48.164 c -0.35,-0.053 -0.705,-0.089 -1.07,-0.089 -0.364,0 -0.721,0.036 -1.072,0.089 h -0.051 l 0.003,0.008 c -3.38,0.538 -5.967,3.458 -5.967,6.99 0,0.648 0.095,1.273 0.258,1.87 -1.369,-1.292 -2.229,-3.118 -2.229,-5.15 0,-3.531 2.587,-6.451 5.967,-6.989 l -0.003,-0.009 h 0.052 c 0.35,-0.052 0.706,-0.088 1.07,-0.088 0.365,0 0.722,0.036 1.071,0.088 h 48.164 c 0.351,-0.052 0.706,-0.088 1.071,-0.088 0.365,0 0.72,0.036 1.071,0.088 h 0.052 l -0.003,0.009 c 2.765,0.44 4.995,2.472 5.718,5.129 C 2.73,0.903 1.437,0.237 -0.002,0.008 Z"
         style="fill:#93b9d5;fill-opacity:1;fill-rule:nonzero;stroke:none"
         id="path196"
         inkscape:connector-curvature="0" /></g><g
       id="g198"
       transform="translate(117.77,315.2144)"><path
         d="m 0,0 h 48.163 c 0.065,0 0.129,-0.005 0.192,-0.015 0.677,-0.101 1.082,-0.101 1.752,-0.001 0.015,0.003 0.03,0.006 0.045,0.008 2.823,0.449 4.871,2.85 4.871,5.708 0,3.193 -2.597,5.79 -5.789,5.79 -0.815,0 -1.61,-0.171 -2.362,-0.509 -0.477,-0.216 -1.036,-0.12 -1.417,0.238 -0.382,0.359 -0.511,0.91 -0.328,1.401 0.364,0.972 0.548,1.994 0.548,3.037 0,4.775 -3.884,8.659 -8.66,8.659 -2.548,0 -4.955,-1.117 -6.607,-3.066 -0.338,-0.399 -0.884,-0.556 -1.382,-0.397 -0.5,0.159 -0.854,0.602 -0.9,1.124 -0.385,4.428 -4.174,7.897 -8.624,7.897 -4.588,0 -8.385,-3.585 -8.643,-8.163 -0.026,-0.449 -0.283,-0.854 -0.68,-1.068 -0.396,-0.214 -0.876,-0.206 -1.265,0.02 -0.885,0.512 -1.887,0.783 -2.899,0.783 -3.192,0 -5.789,-2.596 -5.789,-5.789 0,-0.817 0.172,-1.615 0.512,-2.37 0.188,-0.42 0.14,-0.909 -0.127,-1.284 -0.267,-0.376 -0.713,-0.58 -1.172,-0.54 -0.168,0.015 -0.337,0.027 -0.511,0.027 -3.192,0 -5.789,-2.597 -5.789,-5.79 0,-2.859 2.05,-5.26 4.875,-5.709 0.008,-0.001 0.017,-0.003 0.026,-0.004 0.003,0 0.006,-0.002 0.009,-0.002 0.679,-0.101 1.084,-0.101 1.759,0 C -0.129,-0.005 -0.064,0 0,0 m 49.234,-2.683 c -0.365,0 -0.738,0.028 -1.165,0.089 H 0.094 c -0.878,-0.125 -1.512,-0.121 -2.407,0.011 -0.028,0.003 -0.054,0.007 -0.082,0.012 -4.09,0.652 -7.06,4.13 -7.06,8.271 0,4.239 3.162,7.753 7.251,8.307 -0.109,0.541 -0.164,1.093 -0.164,1.65 0,4.623 3.761,8.384 8.383,8.384 0.85,0 1.693,-0.132 2.501,-0.386 1.118,5.064 5.638,8.812 10.986,8.812 5.032,0 9.288,-3.233 10.73,-7.833 1.936,1.466 4.31,2.276 6.783,2.276 6.206,0 11.255,-5.048 11.255,-11.253 0,-0.553 -0.041,-1.102 -0.121,-1.643 0.358,0.047 0.721,0.07 1.085,0.07 4.623,0 8.383,-3.761 8.383,-8.384 0,-4.089 -2.894,-7.531 -6.903,-8.243 -0.1,-0.03 -0.204,-0.047 -0.309,-0.05 -0.424,-0.06 -0.808,-0.09 -1.171,-0.09"
         style="fill:#175c6c;fill-opacity:1;fill-rule:nonzero;stroke:none"
         id="path200"
         inkscape:connector-curvature="0" /></g><g
       id="g202"
       transform="translate(387.0254,337.1924)"><path
         d="m 0,0 c 0,3.914 -3.173,7.087 -7.087,7.087 -1.031,0 -2.009,-0.226 -2.892,-0.622 0.407,1.087 0.631,2.264 0.631,3.493 0,5.498 -4.458,9.956 -9.957,9.956 -3.046,0 -5.77,-1.37 -7.596,-3.524 -0.445,5.089 -4.712,9.081 -9.917,9.081 -5.308,0 -9.644,-4.153 -9.939,-9.386 -1.045,0.606 -2.254,0.958 -3.549,0.958 -3.913,0 -7.087,-3.172 -7.087,-7.085 0,-1.036 0.228,-2.016 0.626,-2.903 -0.206,0.019 -0.415,0.032 -0.627,0.032 -3.911,0 -7.085,-3.173 -7.085,-7.087 0,-3.532 2.587,-6.451 5.967,-6.989 l -0.003,-0.008 h 0.052 c 0.351,-0.052 0.706,-0.089 1.069,-0.089 0.368,0 0.723,0.037 1.073,0.089 h 48.163 c 0.351,-0.052 0.706,-0.089 1.071,-0.089 0.366,0 0.722,0.037 1.071,0.089 h 0.052 l -10e-4,0.009 C -2.584,-6.45 0,-3.531 0,0"
         style="fill:#ffffff;fill-opacity:1;fill-rule:nonzero;stroke:none"
         id="path204"
         inkscape:connector-curvature="0" /></g><g
       id="g206"
       transform="translate(383.1582,333.4746)"><path
         d="m 0,0 h -0.053 c -0.349,-0.052 -0.705,-0.088 -1.07,-0.088 -0.366,0 -0.722,0.036 -1.071,0.088 h -48.164 c -0.35,-0.052 -0.705,-0.088 -1.072,-0.088 -0.363,0 -0.719,0.036 -1.07,0.088 h -0.052 l 0.004,0.008 c -3.381,0.537 -5.968,3.458 -5.968,6.99 0,0.648 0.095,1.274 0.259,1.87 -1.371,-1.292 -2.229,-3.118 -2.229,-5.15 0,-3.532 2.587,-6.451 5.967,-6.989 l -0.003,-0.008 h 0.051 c 0.35,-0.053 0.705,-0.089 1.071,-0.089 0.365,0 0.721,0.036 1.071,0.089 h 48.164 c 0.35,-0.053 0.706,-0.089 1.07,-0.089 0.366,0 0.72,0.036 1.072,0.089 h 0.051 l -0.002,0.008 c 2.763,0.44 4.994,2.473 5.717,5.13 C 2.729,0.903 1.437,0.238 -0.004,0.008 Z"
         style="fill:#93b9d5;fill-opacity:1;fill-rule:nonzero;stroke:none"
         id="path208"
         inkscape:connector-curvature="0" /></g><g
       id="g210"
       transform="translate(330.7041,331.4922)"><path
         d="m 0,0 h 48.163 c 0.065,0 0.129,-0.005 0.192,-0.014 0.676,-0.102 1.083,-0.102 1.753,-10e-4 0.014,0.003 0.029,0.006 0.043,0.008 2.825,0.449 4.873,2.849 4.873,5.707 0,3.193 -2.597,5.79 -5.79,5.79 -0.814,0 -1.608,-0.171 -2.361,-0.508 -0.477,-0.215 -1.037,-0.12 -1.419,0.238 -0.381,0.358 -0.51,0.91 -0.326,1.4 0.363,0.973 0.548,1.995 0.548,3.038 0,4.775 -3.885,8.659 -8.659,8.659 -2.549,0 -4.956,-1.117 -6.609,-3.066 -0.338,-0.399 -0.884,-0.556 -1.383,-0.397 -0.498,0.159 -0.852,0.602 -0.898,1.124 -0.386,4.427 -4.174,7.896 -8.624,7.896 -4.589,0 -8.386,-3.585 -8.645,-8.162 -0.025,-0.45 -0.282,-0.855 -0.678,-1.068 -0.398,-0.214 -0.876,-0.207 -1.267,0.019 -0.883,0.513 -1.886,0.784 -2.897,0.784 -3.193,0 -5.789,-2.597 -5.789,-5.789 0,-0.817 0.171,-1.615 0.511,-2.371 0.189,-0.42 0.141,-0.909 -0.127,-1.284 -0.266,-0.375 -0.711,-0.581 -1.171,-0.539 -0.168,0.015 -0.337,0.026 -0.512,0.026 -3.191,0 -5.789,-2.597 -5.789,-5.79 0,-2.858 2.05,-5.259 4.876,-5.708 0.007,-0.002 0.016,-0.003 0.026,-0.005 0.003,0 0.006,-0.001 0.009,-0.001 0.679,-0.102 1.084,-0.102 1.758,0 C -0.129,-0.005 -0.064,0 0,0 m 49.234,-2.683 c -0.365,0 -0.737,0.029 -1.165,0.089 H 0.095 c -0.878,-0.124 -1.513,-0.121 -2.408,0.011 -0.027,0.003 -0.053,0.008 -0.081,0.014 V -2.57 c -4.09,0.651 -7.06,4.13 -7.06,8.27 0,4.239 3.162,7.754 7.251,8.308 -0.11,0.541 -0.164,1.092 -0.164,1.65 0,4.622 3.76,8.383 8.383,8.383 0.848,0 1.692,-0.131 2.501,-0.385 1.118,5.064 5.637,8.812 10.986,8.812 5.032,0 9.287,-3.233 10.728,-7.834 1.937,1.467 4.31,2.277 6.786,2.277 6.205,0 11.254,-5.048 11.254,-11.253 0,-0.553 -0.042,-1.102 -0.121,-1.644 0.358,0.047 0.72,0.07 1.084,0.07 4.622,0 8.384,-3.761 8.384,-8.384 0,-4.088 -2.894,-7.531 -6.904,-8.243 -0.1,-0.028 -0.203,-0.046 -0.309,-0.05 -0.425,-0.06 -0.808,-0.09 -1.171,-0.09"
         style="fill:#175c6c;fill-opacity:1;fill-rule:nonzero;stroke:none"
         id="path212"
         inkscape:connector-curvature="0" /></g></g></g><text
   transform="scale(1,-1)"
   style="font-variant:normal;font-weight:bold;font-stretch:normal;font-size:93.18360138px;font-family:'Bebas Neue Bold';-inkscape-font-specification:BebasNeueBold;writing-mode:lr-tb;fill:#f05757;fill-opacity:1;fill-rule:nonzero;stroke:none"
   id="text216"
   x="179.9725"
   y="-219.57364"
   inkscape:export-filename="/home/hugo/Desktop/gestao-escola-conducao/dsm-frontend/src/images/DSM_404.png"
   inkscape:export-xdpi="300"
   inkscape:export-ydpi="300"><tspan
     x="179.9725 216.87321 253.77391"
     y="-219.57364"
     sodipodi:role="line"
     id="tspan214"
     style="font-style:normal;font-variant:normal;font-weight:bold;font-stretch:normal;font-family:'Bitstream Vera Sans';-inkscape-font-specification:'Bitstream Vera Sans Bold';letter-spacing:0.015px"
     dx="-18.139999 4.3800001 27.000023">404</tspan></text>

<text
   transform="scale(1,-1)"
   style="font-variant:normal;font-weight:normal;font-stretch:normal;font-size:20.34910011px;font-family:'Bebas Neue Regular';-inkscape-font-specification:BebasNeueRegular;writing-mode:lr-tb;fill:#6e7c7d;fill-opacity:1;fill-rule:nonzero;stroke:none"
   id="text220"
   x="118.49139"
   y="-187.76141"
   inkscape:export-filename="/home/hugo/Desktop/gestao-escola-conducao/dsm-frontend/src/images/DSM_404.png"
   inkscape:export-xdpi="300"
   inkscape:export-ydpi="300"><tspan
     sodipodi:role="line"
     id="tspan218"
     x="118.49139"
     y="-187.76141">PÁGINA NÃO ENCONTRADA</tspan></text>

<g
   id="g222"
   transform="translate(3.7452688,-104.14209)"
   inkscape:export-filename="/home/hugo/Desktop/gestao-escola-conducao/dsm-frontend/src/images/DSM_404.png"
   inkscape:export-xdpi="300"
   inkscape:export-ydpi="300"><g
     id="g224"
     clip-path="url(#clipPath228)"><path
       d="M 167.256,113.276 H 153.53 v 133.932 h 13.726 z"
       style="fill:#ffffff;fill-opacity:1;fill-rule:nonzero;stroke:none"
       id="path230"
       inkscape:connector-curvature="0" /><g
       id="g232"
       transform="translate(160.3936,264.6763)"><path
         d="m 0,0 c -4.167,0 -7.546,-3.378 -7.546,-7.544 v -9.924 H 7.546 v 9.924 C 7.546,-3.378 4.167,0 0,0"
         style="fill:#698793;fill-opacity:1;fill-rule:nonzero;stroke:none"
         id="path234"
         inkscape:connector-curvature="0" /></g><g
       id="g236"
       transform="translate(170.355,274.6392)"><path
         d="m 0,0 c 0,-5.502 -4.459,-9.963 -9.961,-9.963 -5.503,0 -9.963,4.461 -9.963,9.963 0,5.501 4.46,9.961 9.963,9.961 C -4.459,9.961 0,5.501 0,0"
         style="fill:#f05757;fill-opacity:1;fill-rule:nonzero;stroke:none"
         id="path238"
         inkscape:connector-curvature="0" /></g><g
       id="g240"><g
         id="g242" /><g
         id="g254"><g
           clip-path="url(#clipPath246)"
           id="g252"
           style="opacity:0.5"><g
             transform="translate(158.5386,281.4775)"
             id="g250"><path
               d="m 0,0 c 5.502,0 9.962,-4.461 9.962,-9.962 0,-0.881 -0.125,-1.729 -0.339,-2.541 1.265,1.67 2.023,3.743 2.023,6.001 0,5.501 -4.459,9.962 -9.961,9.962 -4.622,0 -8.498,-3.153 -9.622,-7.421 C -6.119,-1.559 -3.246,0 0,0"
               style="fill:#ffffff;fill-opacity:1;fill-rule:nonzero;stroke:none"
               id="path248"
               inkscape:connector-curvature="0" /></g></g></g></g><g
       id="g256"
       transform="translate(164.063,274.6392)"><path
         d="m 0,0 c 0,-2.027 -1.642,-3.669 -3.669,-3.669 -2.028,0 -3.67,1.642 -3.67,3.669 0,2.026 1.642,3.669 3.67,3.669 C -1.642,3.669 0,2.026 0,0"
         style="fill:#ffffff;fill-opacity:1;fill-rule:nonzero;stroke:none"
         id="path258"
         inkscape:connector-curvature="0" /></g><g
       id="g260"
       transform="translate(154.1445,248.5039)"><path
         d="m 0,0 h 12.498 v 8.628 c 0,3.444 -2.803,6.248 -6.249,6.248 C 2.803,14.876 0,12.072 0,8.628 Z M 13.795,-2.594 H -1.297 c -0.716,0 -1.296,0.581 -1.296,1.298 v 9.924 c 0,4.874 3.967,8.841 8.842,8.841 4.876,0 8.842,-3.967 8.842,-8.841 v -9.924 c 0,-0.717 -0.581,-1.298 -1.296,-1.298"
         style="fill:#175c6c;fill-opacity:1;fill-rule:nonzero;stroke:none"
         id="path262"
         inkscape:connector-curvature="0" /></g><g
       id="g264"
       transform="translate(160.3936,283.3042)"><path
         d="m 0,0 c -4.779,0 -8.665,-3.887 -8.665,-8.665 0,-4.779 3.886,-8.666 8.665,-8.666 4.778,0 8.665,3.887 8.665,8.666 C 8.665,-3.887 4.778,0 0,0 m 0,-19.924 c -6.208,0 -11.259,5.05 -11.259,11.259 0,6.208 5.051,11.259 11.259,11.259 6.208,0 11.259,-5.051 11.259,-11.259 0,-6.209 -5.051,-11.259 -11.259,-11.259"
         style="fill:#175c6c;fill-opacity:1;fill-rule:nonzero;stroke:none"
         id="path266"
         inkscape:connector-curvature="0" /></g><path
       d="M 167.256,200.588 H 153.53 v -9.501 h 13.726 z"
       style="fill:#93b9d5;fill-opacity:1;fill-rule:nonzero;stroke:none"
       id="path268"
       inkscape:connector-curvature="0" /><path
       d="m 154.827,114.052 h 11.133 v 139.417 h -11.133 z m 12.429,-2.595 h -13.725 c -0.717,0 -1.298,0.581 -1.298,1.298 v 142.011 c 0,0.716 0.581,1.296 1.298,1.296 h 13.725 c 0.717,0 1.297,-0.58 1.297,-1.296 V 112.755 c 0,-0.717 -0.58,-1.298 -1.297,-1.298"
       style="fill:#175c6c;fill-opacity:1;fill-rule:nonzero;stroke:none"
       id="path270"
       inkscape:connector-curvature="0" /><path
       d="m 346.081,113.276 h -13.727 v 133.932 h 13.727 z"
       style="fill:#ffffff;fill-opacity:1;fill-rule:nonzero;stroke:none"
       id="path272"
       inkscape:connector-curvature="0" /><g
       id="g274"
       transform="translate(339.2187,264.6763)"><path
         d="m 0,0 c -4.168,0 -7.546,-3.378 -7.546,-7.544 v -9.924 H 7.545 v 9.924 C 7.545,-3.378 4.167,0 0,0"
         style="fill:#698793;fill-opacity:1;fill-rule:nonzero;stroke:none"
         id="path276"
         inkscape:connector-curvature="0" /></g><g
       id="g278"
       transform="translate(349.1797,274.6392)"><path
         d="m 0,0 c 0,-5.502 -4.459,-9.963 -9.961,-9.963 -5.503,0 -9.963,4.461 -9.963,9.963 0,5.501 4.46,9.961 9.963,9.961 C -4.459,9.961 0,5.501 0,0"
         style="fill:#f05757;fill-opacity:1;fill-rule:nonzero;stroke:none"
         id="path280"
         inkscape:connector-curvature="0" /></g><g
       id="g282"><g
         id="g284" /><g
         id="g296"><g
           clip-path="url(#clipPath288)"
           id="g294"
           style="opacity:0.5"><g
             transform="translate(337.3643,281.4775)"
             id="g292"><path
               d="m 0,0 c 5.502,0 9.962,-4.461 9.962,-9.962 0,-0.881 -0.126,-1.729 -0.34,-2.541 1.265,1.67 2.024,3.743 2.024,6.001 0,5.501 -4.459,9.962 -9.961,9.962 -4.623,0 -8.498,-3.153 -9.623,-7.421 C -6.119,-1.559 -3.246,0 0,0"
               style="fill:#ffffff;fill-opacity:1;fill-rule:nonzero;stroke:none"
               id="path290"
               inkscape:connector-curvature="0" /></g></g></g></g><g
       id="g298"
       transform="translate(342.8877,274.6392)"><path
         d="m 0,0 c 0,-2.027 -1.643,-3.669 -3.669,-3.669 -2.027,0 -3.67,1.642 -3.67,3.669 0,2.026 1.643,3.669 3.67,3.669 C -1.643,3.669 0,2.026 0,0"
         style="fill:#ffffff;fill-opacity:1;fill-rule:nonzero;stroke:none"
         id="path300"
         inkscape:connector-curvature="0" /></g><g
       id="g302"
       transform="translate(332.9697,248.5039)"><path
         d="m 0,0 h 12.497 v 8.628 c 0,3.444 -2.803,6.248 -6.248,6.248 C 2.803,14.876 0,12.072 0,8.628 Z M 13.794,-2.594 H -1.297 c -0.717,0 -1.297,0.581 -1.297,1.298 v 9.924 c 0,4.874 3.967,8.841 8.843,8.841 4.875,0 8.842,-3.967 8.842,-8.841 v -9.924 c 0,-0.717 -0.58,-1.298 -1.297,-1.298"
         style="fill:#175c6c;fill-opacity:1;fill-rule:nonzero;stroke:none"
         id="path304"
         inkscape:connector-curvature="0" /></g><g
       id="g306"
       transform="translate(339.2187,283.3042)"><path
         d="m 0,0 c -4.778,0 -8.667,-3.887 -8.667,-8.665 0,-4.779 3.889,-8.666 8.667,-8.666 4.777,0 8.665,3.887 8.665,8.666 C 8.665,-3.887 4.777,0 0,0 m 0,-19.924 c -6.209,0 -11.261,5.05 -11.261,11.259 0,6.208 5.052,11.259 11.261,11.259 6.207,0 11.259,-5.051 11.259,-11.259 0,-6.209 -5.052,-11.259 -11.259,-11.259"
         style="fill:#175c6c;fill-opacity:1;fill-rule:nonzero;stroke:none"
         id="path308"
         inkscape:connector-curvature="0" /></g><path
       d="m 346.081,200.588 h -13.727 v -9.501 h 13.727 z"
       style="fill:#93b9d5;fill-opacity:1;fill-rule:nonzero;stroke:none"
       id="path310"
       inkscape:connector-curvature="0" /><path
       d="m 333.652,114.052 h 11.132 v 139.417 h -11.132 z m 12.429,-2.595 h -13.727 c -0.715,0 -1.296,0.581 -1.296,1.298 v 142.011 c 0,0.716 0.581,1.296 1.296,1.296 h 13.727 c 0.717,0 1.297,-0.58 1.297,-1.296 V 112.755 c 0,-0.717 -0.58,-1.298 -1.297,-1.298"
       style="fill:#175c6c;fill-opacity:1;fill-rule:nonzero;stroke:none"
       id="path312"
       inkscape:connector-curvature="0" /><path
       d="M 357.76,129.94 H 141.851 v 19.021 H 357.76 Z"
       style="fill:#ffffff;fill-opacity:1;fill-rule:nonzero;stroke:none"
       id="path314"
       inkscape:connector-curvature="0" /><path
       d="M 355.251,201.593 H 144.36 v 53.173 h 210.891 z"
       style="fill:#ffffff;fill-opacity:1;fill-rule:nonzero;stroke:none"
       id="path316"
       inkscape:connector-curvature="0" /><g
       id="g318"
       transform="translate(187.3345,254.7656)"><path
         d="m 0,0 -45.483,-45.483 v -7.69 H -29.42 L 23.752,0 Z"
         style="fill:#f05757;fill-opacity:1;fill-rule:nonzero;stroke:none"
         id="path320"
         inkscape:connector-curvature="0" /></g><g
       id="g322"
       transform="translate(141.8511,246.7822)"><path
         d="M 0,0 V -23.754 L 31.736,7.983 H 7.982 Z"
         style="fill:#f05757;fill-opacity:1;fill-rule:nonzero;stroke:none"
         id="path324"
         inkscape:connector-curvature="0" /></g><g
       id="g326"
       transform="translate(285.7178,254.7656)"><path
         d="m 0,0 h -23.752 l -53.172,-53.173 h 23.752 z"
         style="fill:#f05757;fill-opacity:1;fill-rule:nonzero;stroke:none"
         id="path328"
         inkscape:connector-curvature="0" /></g><g
       id="g330"
       transform="translate(248.2183,254.7656)"><path
         d="m 0,0 h -23.753 l -53.173,-53.173 h 23.754 z"
         style="fill:#f05757;fill-opacity:1;fill-rule:nonzero;stroke:none"
         id="path332"
         inkscape:connector-curvature="0" /></g><g
       id="g334"
       transform="translate(323.0342,254.7656)"><path
         d="m 0,0 h -23.754 l -53.172,-53.173 h 23.752 z"
         style="fill:#f05757;fill-opacity:1;fill-rule:nonzero;stroke:none"
         id="path336"
         inkscape:connector-curvature="0" /></g><g
       id="g338"
       transform="translate(357.7598,214.8604)"><path
         d="m 0,0 v 23.754 l -37.021,-37.022 h 23.753 z"
         style="fill:#f05757;fill-opacity:1;fill-rule:nonzero;stroke:none"
         id="path340"
         inkscape:connector-curvature="0" /></g><g
       id="g342"
       transform="translate(357.7598,252.3608)"><path
         d="m 0,0 v 2.405 h -21.348 l -53.173,-53.173 h 23.753 z"
         style="fill:#f05757;fill-opacity:1;fill-rule:nonzero;stroke:none"
         id="path344"
         inkscape:connector-curvature="0" /></g><g
       id="g346"><g
         id="g348" /><g
         id="g358"><g
           clip-path="url(#clipPath352)"
           id="g356"
           style="opacity:0.5"><path
             d="M 357.76,249.253 H 141.851 v 5.513 H 357.76 Z"
             style="fill:#ffffff;fill-opacity:1;fill-rule:nonzero;stroke:none"
             id="path354"
             inkscape:connector-curvature="0" /></g></g></g><path
       d="m 143.148,202.889 h 213.315 v 50.58 H 143.148 Z M 357.76,200.295 H 141.851 c -0.716,0 -1.296,0.582 -1.296,1.298 v 53.173 c 0,0.716 0.58,1.296 1.296,1.296 H 357.76 c 0.716,0 1.297,-0.58 1.297,-1.296 v -53.173 c 0,-0.716 -0.581,-1.298 -1.297,-1.298"
       style="fill:#175c6c;fill-opacity:1;fill-rule:nonzero;stroke:none"
       id="path360"
       inkscape:connector-curvature="0" /><g
       id="g362"
       transform="translate(152.873,148.9619)"><path
         d="m 0,0 -11.022,-11.021 v -8 h 8.319 L 16.318,0 Z"
         style="fill:#f05757;fill-opacity:1;fill-rule:nonzero;stroke:none"
         id="path364"
         inkscape:connector-curvature="0" /></g><g
       id="g366"
       transform="translate(196.8218,148.9619)"><path
         d="m 0,0 h -16.318 l -19.021,-19.021 h 16.318 z"
         style="fill:#f05757;fill-opacity:1;fill-rule:nonzero;stroke:none"
         id="path368"
         inkscape:connector-curvature="0" /></g><g
       id="g370"
       transform="translate(223.7476,148.9619)"><path
         d="m 0,0 h -16.318 l -19.02,-19.021 h 16.317 z"
         style="fill:#f05757;fill-opacity:1;fill-rule:nonzero;stroke:none"
         id="path372"
         inkscape:connector-curvature="0" /></g><g
       id="g374"
       transform="translate(251.377,148.9619)"><path
         d="m 0,0 h -16.317 l -19.02,-19.021 h 16.316 z"
         style="fill:#f05757;fill-opacity:1;fill-rule:nonzero;stroke:none"
         id="path376"
         inkscape:connector-curvature="0" /></g><g
       id="g378"
       transform="translate(280.7432,148.9619)"><path
         d="m 0,0 h -16.318 l -19.021,-19.021 h 16.318 z"
         style="fill:#f05757;fill-opacity:1;fill-rule:nonzero;stroke:none"
         id="path380"
         inkscape:connector-curvature="0" /></g><g
       id="g382"
       transform="translate(308.373,148.9619)"><path
         d="M 0,0 H -16.318 L -35.34,-19.021 h 16.319 z"
         style="fill:#f05757;fill-opacity:1;fill-rule:nonzero;stroke:none"
         id="path384"
         inkscape:connector-curvature="0" /></g><g
       id="g386"
       transform="translate(336.9482,148.9619)"><path
         d="m 0,0 h -16.318 l -19.021,-19.021 h 16.318 z"
         style="fill:#f05757;fill-opacity:1;fill-rule:nonzero;stroke:none"
         id="path388"
         inkscape:connector-curvature="0" /></g><g
       id="g390"
       transform="translate(357.7598,142.1445)"><path
         d="m 0,0 v 6.817 h -9.5 l -19.021,-19.021 h 16.319 z"
         style="fill:#f05757;fill-opacity:1;fill-rule:nonzero;stroke:none"
         id="path392"
         inkscape:connector-curvature="0" /></g><path
       d="m 143.148,131.238 h 213.315 v 16.428 H 143.148 Z M 357.76,128.645 H 141.851 c -0.716,0 -1.296,0.581 -1.296,1.295 v 19.022 c 0,0.716 0.58,1.298 1.296,1.298 H 357.76 c 0.716,0 1.297,-0.582 1.297,-1.298 V 129.94 c 0,-0.714 -0.581,-1.295 -1.297,-1.295"
       style="fill:#175c6c;fill-opacity:1;fill-rule:nonzero;stroke:none"
       id="path394"
       inkscape:connector-curvature="0" /><g
       id="g396"
       transform="translate(400.8301,111.457)"><path
         d="m 0,0 h -302.049 c -0.716,0 -1.297,0.581 -1.297,1.298 0,0.717 0.581,1.297 1.297,1.297 L 0,2.595 c 0.715,0 1.297,-0.58 1.297,-1.297 C 1.297,0.581 0.715,0 0,0"
         style="fill:#175c6c;fill-opacity:1;fill-rule:nonzero;stroke:none"
         id="path398"
         inkscape:connector-curvature="0" /></g><g
       id="g400"
       transform="translate(414.5811,122.0703)"><path
         d="m 0,0 -17.424,71.987 h -2.35 -4.337 -2.351 L -43.889,0 H -54.402 V -9.316 H 10.515 V 0 Z"
         style="fill:#f05757;fill-opacity:1;fill-rule:nonzero;stroke:none"
         id="path402"
         inkscape:connector-curvature="0" /></g><g
       id="g404"
       transform="translate(406.9082,154.4316)"><path
         d="m 0,0 h -28.382 l 2.011,8.307 h 24.199 z"
         style="fill:#f1f1f2;fill-opacity:1;fill-rule:nonzero;stroke:none"
         id="path406"
         inkscape:connector-curvature="0" /></g><path
       d="m 409.485,136.762 h -35.26 v 8.306 h 35.26 z"
       style="fill:#f1f1f2;fill-opacity:1;fill-rule:nonzero;stroke:none"
       id="path408"
       inkscape:connector-curvature="0" /><g
       id="g410"><g
         id="g412" /><g
         id="g424"><g
           clip-path="url(#clipPath416)"
           id="g422"
           style="opacity:0.5"><g
             transform="translate(409.4854,122.0703)"
             id="g420"><path
               d="m 0,0 -16.769,71.987 h 3.906 L 5.096,0 Z"
               style="fill:#ffffff;fill-opacity:1;fill-rule:nonzero;stroke:none"
               id="path418"
               inkscape:connector-curvature="0" /></g></g></g></g><g
       id="g426"><g
         id="g428" /><g
         id="g438"><g
           clip-path="url(#clipPath432)"
           id="g436"
           style="opacity:0.5"><path
             d="m 424.561,122.07 h -64.917 v -4.57 h 64.917 z"
             style="fill:#ffffff;fill-opacity:1;fill-rule:nonzero;stroke:none"
             id="path434"
             inkscape:connector-curvature="0" /></g></g></g><g
       id="g440"
       transform="translate(360.9395,114.0518)"><path
         d="m 0,0 h 62.324 v 6.722 h -9.218 c -0.598,0 -1.119,0.409 -1.259,0.991 L 34.661,78.708 H 27.664 L 10.478,7.713 C 10.338,7.131 9.816,6.722 9.218,6.722 H 0 Z M 63.621,-2.595 H -1.296 c -0.717,0 -1.297,0.581 -1.297,1.297 v 9.317 c 0,0.715 0.58,1.297 1.297,1.297 h 9.494 l 17.184,70.996 c 0.142,0.582 0.662,0.991 1.262,0.991 h 9.039 c 0.598,0 1.119,-0.409 1.259,-0.991 L 54.126,9.316 h 9.495 c 0.714,0 1.296,-0.582 1.296,-1.297 v -9.317 c 0,-0.716 -0.582,-1.297 -1.296,-1.297"
         style="fill:#175c6c;fill-opacity:1;fill-rule:nonzero;stroke:none"
         id="path442"
         inkscape:connector-curvature="0" /></g><g
       id="g444"
       transform="translate(397.6133,120.7734)"><path
         d="m 0,0 h -26.921 c -0.716,0 -1.296,0.58 -1.296,1.297 0,0.716 0.58,1.298 1.296,1.298 L 0,2.595 C 0.717,2.595 1.297,2.013 1.297,1.297 1.297,0.58 0.717,0 0,0"
         style="fill:#175c6c;fill-opacity:1;fill-rule:nonzero;stroke:none"
         id="path446"
         inkscape:connector-curvature="0" /></g><g
       id="g448"
       transform="translate(420.5264,120.7734)"><path
         d="m 0,0 h -15.348 c -0.716,0 -1.297,0.58 -1.297,1.297 0,0.716 0.581,1.298 1.297,1.298 L 0,2.595 C 0.714,2.595 1.296,2.013 1.296,1.297 1.296,0.58 0.714,0 0,0"
         style="fill:#175c6c;fill-opacity:1;fill-rule:nonzero;stroke:none"
         id="path450"
         inkscape:connector-curvature="0" /></g><g
       id="g452"
       transform="translate(129.9897,122.0703)"><path
         d="m 0,0 -17.424,71.987 h -2.352 -4.336 -2.351 L -43.889,0 H -54.403 V -9.316 H 10.514 V 0 Z"
         style="fill:#f05757;fill-opacity:1;fill-rule:nonzero;stroke:none"
         id="path454"
         inkscape:connector-curvature="0" /></g><g
       id="g456"
       transform="translate(122.3164,154.4316)"><path
         d="m 0,0 h -28.382 l 2.01,8.307 h 24.2 z"
         style="fill:#f1f1f2;fill-opacity:1;fill-rule:nonzero;stroke:none"
         id="path458"
         inkscape:connector-curvature="0" /></g><path
       d="M 124.893,136.762 H 89.634 v 8.306 h 35.259 z"
       style="fill:#f1f1f2;fill-opacity:1;fill-rule:nonzero;stroke:none"
       id="path460"
       inkscape:connector-curvature="0" /><g
       id="g462"><g
         id="g464" /><g
         id="g476"><g
           clip-path="url(#clipPath468)"
           id="g474"
           style="opacity:0.5"><g
             transform="translate(124.8931,122.0703)"
             id="g472"><path
               d="m 0,0 -16.767,71.987 h 3.903 L 5.097,0 Z"
               style="fill:#ffffff;fill-opacity:1;fill-rule:nonzero;stroke:none"
               id="path470"
               inkscape:connector-curvature="0" /></g></g></g></g><g
       id="g478"><g
         id="g480" /><g
         id="g490"><g
           clip-path="url(#clipPath484)"
           id="g488"
           style="opacity:0.5"><path
             d="M 139.968,122.07 H 75.051 v -4.57 h 64.917 z"
             style="fill:#ffffff;fill-opacity:1;fill-rule:nonzero;stroke:none"
             id="path486"
             inkscape:connector-curvature="0" /></g></g></g><g
       id="g492"
       transform="translate(76.3481,114.0518)"><path
         d="m 0,0 h 62.323 v 6.722 h -9.217 c -0.599,0 -1.12,0.409 -1.26,0.991 L 34.661,78.708 H 27.663 L 10.478,7.713 C 10.337,7.131 9.816,6.722 9.217,6.722 H 0 Z M 63.62,-2.595 H -1.297 c -0.716,0 -1.296,0.581 -1.296,1.297 v 9.317 c 0,0.715 0.58,1.297 1.296,1.297 h 9.494 l 17.185,70.996 c 0.141,0.582 0.662,0.991 1.26,0.991 h 9.039 c 0.599,0 1.12,-0.409 1.261,-0.991 L 54.126,9.316 h 9.494 c 0.715,0 1.297,-0.582 1.297,-1.297 v -9.317 c 0,-0.716 -0.582,-1.297 -1.297,-1.297"
         style="fill:#175c6c;fill-opacity:1;fill-rule:nonzero;stroke:none"
         id="path494"
         inkscape:connector-curvature="0" /></g><g
       id="g496"
       transform="translate(113.021,120.7734)"><path
         d="m 0,0 h -26.92 c -0.716,0 -1.297,0.58 -1.297,1.297 0,0.716 0.581,1.298 1.297,1.298 L 0,2.595 C 0.717,2.595 1.297,2.013 1.297,1.297 1.297,0.58 0.717,0 0,0"
         style="fill:#175c6c;fill-opacity:1;fill-rule:nonzero;stroke:none"
         id="path498"
         inkscape:connector-curvature="0" /></g><g
       id="g500"
       transform="translate(135.9336,120.7734)"><path
         d="m 0,0 h -15.347 c -0.716,0 -1.297,0.58 -1.297,1.297 0,0.716 0.581,1.298 1.297,1.298 L 0,2.595 C 0.716,2.595 1.297,2.013 1.297,1.297 1.297,0.58 0.716,0 0,0"
         style="fill:#175c6c;fill-opacity:1;fill-rule:nonzero;stroke:none"
         id="path502"
         inkscape:connector-curvature="0" /></g></g></g><text
   transform="scale(1,-1)"
   style="font-variant:normal;font-weight:normal;font-stretch:condensed;font-size:15.05020046px;font-family:'Roboto Cn';-inkscape-font-specification:Roboto-Condensed;writing-mode:lr-tb;fill:#6e7c7d;fill-opacity:1;fill-rule:nonzero;stroke:none"
   id="text506"
   x="104.18024"
   y="15.690222"
   inkscape:export-filename="/home/hugo/Desktop/gestao-escola-conducao/dsm-frontend/src/images/DSM_404.png"
   inkscape:export-xdpi="300"
   inkscape:export-ydpi="300"><tspan
     sodipodi:role="line"
     id="tspan504"
     x="104.18024"
     y="29.006123" /></text>

</g></svg>